# xmcd
# 
# Track frame offsets:
#     150
#     16695
#     33597
#     53038
#     69738
#     84653
#     104097
#     121677
#     135821
# 
# Disc length: 2090
# 
# Revision: 1
# Processed by: cddbd v1.5.2PL0 Copyright (c) Steve Scherf et al.
# Submitted via: BonkEnc v1.0
# 
DISCID=6d082809
DTITLE=Pauline Reese - Pauline Reese
DYEAR=2000
DGENRE=Country
TTITLE0=What's His Name
TTITLE1=Blink Of An Eye
TTITLE2=Take Me Away
TTITLE3=Half A Heart
TTITLE4=The Bottle
TTITLE5=You Don't Laugh Anymore
TTITLE6=Better Off Blue
TTITLE7=Black Vinyl Car Seat
TTITLE8=Oh Lonesome You
EXTD=
EXTT0=
EXTT1=
EXTT2=
EXTT3=
EXTT4=
EXTT5=
EXTT6=
EXTT7=
EXTT8=
PLAYORDER=
